<?xml version="1.0" encoding="UTF-8" standalone="no"?>
<svg xmlns="http://www.w3.org/2000/svg" width="32" height="32" viewBox="0 0 4900 4860"><path fill="#fff" d="M886 4849 c-93 -14 -172 -36 -259 -74 -328 -142 -527 -401 -592 -770 -30 -172 -37 -519 -32 -1765 4 -1288 5 -1320 53 -1508 42 -168 113 -290 246 -422 131 -131 318 -240 448 -261 36 -6 112 -20 169 -30 98 -18 171 -19 1515 -19 849 0 1456 4 1523 10 173 15 334 75 503 185 83 54 131 104 225 235 100 139 158 259 186 385 23 100 23 100 27 1340 4 1565 -4 1781 -73 2018 -45 156 -113 267 -240 392 -149 146 -314 221 -605 272 -85 15 -243 17 -1565 19 -811 1 -1497 -2 -1529 -7z m187 -1386 c3 -959 4 -991 25 -1085 60 -279 204 -569 385 -777 308 -352 823 -571 1292 -548 193 9 341 56 526 165 306 181 511 528 551 933 36 358 -112 716 -392 953 -154 130 -310 216 -500 273 -74 23 -104 26 -235 27 -169 1 -200 -6 -340 -77 -61 -32 -101 -63 -171 -132 -76 -76 -97 -105 -136 -185 -56 -114 -71 -183 -71 -315 0 -200 77 -365 238 -513 113 -104 300 -182 440 -185 95 -1 130 17 190 100 48 67 48 67 41 137 -8 86 -39 153 -84 179 -17 10 -71 25 -119 34 -111 19 -163 41 -197 86 -54 70 -69 166 -40 255 47 146 169 193 370 142 297 -75 495 -289 548 -595 9 -49 16 -113 16 -140 0 -74 -34 -186 -92 -305 -112 -227 -312 -362 -571 -386 -278 -25 -647 125 -877 356 -145 146 -256 334 -317 540 -28 95 -28 95 -25 1025 1 512 5 951 8 978 6 47 6 47 1217 45 1212 -3 1212 -3 1302 -31 169 -53 252 -118 334 -261 60 -105 89 -190 102 -299 14 -118 13 -2709 -2 -2840 -23 -212 -120 -386 -270 -486 -82 -55 -223 -98 -359 -109 -58 -5 -724 -8 -1480 -7 -1536 2 -1418 -3 -1565 73 -173 90 -326 310 -349 502 -3 25 -6 682 -7 1460 -2 1585 -6 1490 70 1645 48 96 110 169 196 230 96 69 231 122 317 124 27 1 27 1 31 -986z"></path></svg>